<svg width="166" height="54" viewBox="0 0 166 54" fill="none" xmlns="http://www.w3.org/2000/svg">
<g clip-path="url(#clip0_852_26540)">
<path d="M82.1048 28.2377H70.9946V42.9581H82.1048V28.2377Z" fill="black"/>
<path d="M99.5977 49.6493V2.58656C99.5977 1.18086 100.825 0.0338135 102.344 0.0338135H107.736C109.256 0.0338135 110.483 1.18086 110.483 2.58656V49.6493C110.483 51.055 109.256 52.202 107.736 52.202H102.344C100.825 52.202 99.5977 51.055 99.5977 49.6493Z" fill="#FF6C00"/>
<path d="M40.3096 24.9089V23.5257H27.8712L27.6685 24.6053C27.4434 25.8198 26.3065 26.7082 24.9895 26.7082H19.0235C17.3013 26.7082 16.018 25.2238 16.3557 23.6494L19.6201 8.68158H2.72408C1.22696 8.68158 0 7.53453 0 6.12884V2.62022C0 1.20328 1.2157 0.0674734 2.72408 0.0674734H29.3233C31.023 0.0674734 32.3062 1.51815 31.991 3.09253L31.7321 4.37453H40.3096V2.55275C40.3096 1.14705 41.5253 0 43.0337 0H48.3693C49.8664 0 51.0934 1.14705 51.0934 2.55275V24.9089C51.0934 26.3146 49.8777 27.4617 48.3693 27.4617H43.0337C41.5366 27.4617 40.3096 26.3146 40.3096 24.9089ZM16.9636 53.4165C9.51176 53.1016 4.9191 48.4909 4.9191 41.4962C4.9191 34.5014 9.24161 29.947 17.0987 29.6996C20.9597 29.5759 24.8206 29.5759 28.6704 29.5759C32.5201 29.5759 36.3923 29.5759 40.2421 29.6996C48.0879 29.8907 52.4216 34.1303 52.4216 41.4962C52.4216 48.4234 47.7614 53.1016 40.3772 53.4165C36.2573 53.6077 32.0586 53.6077 27.8712 53.6077C24.2803 53.6077 20.622 53.6077 16.9636 53.4165ZM38.7225 44.6787C41.0526 44.555 42.3808 43.869 42.3808 41.4962C42.3808 39.1234 41.1201 38.3811 38.7225 38.2462C35.3905 38.055 32.0023 38.1225 28.6816 38.1225C25.361 38.1225 21.9615 38.055 18.6408 38.2462C16.2432 38.3699 14.9824 39.0559 14.9824 41.4962C14.9824 43.9365 16.3107 44.555 18.6408 44.6787C21.9727 44.8698 25.361 44.8024 28.6816 44.8024C32.0023 44.8024 35.4018 44.8698 38.7225 44.6787ZM40.3096 15.845V12.044H30.2013L29.402 15.845H40.3096Z" fill="#FF6C00"/>
<path d="M155.621 49.6155V27.5179H145.885L149.858 48.5247C150.151 50.0878 148.924 51.5385 147.28 51.5385H142.958C141.708 51.5385 140.639 50.6838 140.391 49.4918L137.42 35.2436C136.136 28.8224 134.797 22.2662 134.02 15.7101C131.78 27.0344 129.022 38.3587 126.242 49.5705C125.961 50.7176 124.902 51.516 123.698 51.516H117.732C116.021 51.516 114.772 49.9416 115.199 48.3222L127.491 2.10292C127.795 0.978365 128.831 0.191175 130.024 0.191175H138.512C139.772 0.191175 140.853 1.06833 141.089 2.27161L144.084 18.0267H155.621V2.55275C155.621 1.14705 156.792 0 158.244 0H163.388C164.841 0 166.011 1.14705 166.011 2.55275V49.6155C166.011 51.0212 164.841 52.1682 163.388 52.1682H158.244C156.792 52.1682 155.621 51.0212 155.621 49.6155Z" fill="#FF6C00"/>
<path d="M66.6947 19.6798H86.4837C90.4685 19.6798 93.7104 22.9185 93.7104 26.8995V36.6606C93.7104 40.709 90.4235 44.004 86.3598 44.004H67.1562C62.8562 44.004 59.3667 40.5179 59.3667 36.222V26.9894C59.3667 22.9523 62.6423 19.6798 66.6834 19.6798H66.6947Z" fill="#FF6C00"/>
<path d="M90.7841 0.0900414H85.032C83.4111 0.0900414 82.1053 1.23709 82.1053 2.64279V15.9013H70.9951V2.58656C70.9951 1.18086 69.6781 0.0338135 68.0684 0.0338135H62.3163C60.6954 0.0338135 59.3896 1.18086 59.3896 2.58656V19.4324V42.6545C59.3896 39.8432 61.8323 37.5603 64.8378 37.5603H88.2739C91.2794 37.5603 93.7221 39.8432 93.7221 42.6545V2.64279C93.7221 1.23709 92.405 0.0900414 90.7954 0.0900414H90.7841Z" fill="#FF6C00"/>
<path d="M64.9616 25.8873H88.1388C91.2119 25.8873 93.7221 28.3838 93.7221 31.4651V43.8353C93.7221 48.1198 90.2438 51.5947 85.9551 51.5947H67.6294C63.0818 51.5947 59.3896 47.9062 59.3896 43.363V31.4651C59.3896 28.3951 61.8886 25.8873 64.9729 25.8873H64.9616Z" fill="white"/>
<path d="M64.9616 35.8846H88.1388C91.2119 35.8846 93.7221 38.3812 93.7221 41.4624V43.8353C93.7221 48.1198 90.2438 51.5947 85.9551 51.5947H67.6294C63.0818 51.5947 59.3896 47.9062 59.3896 43.363V41.4624C59.3896 38.3924 61.8886 35.8846 64.9729 35.8846H64.9616Z" fill="#FF6C00"/>
<path d="M78.7507 30.9704C79.1548 30.9704 79.4824 30.5777 79.4824 30.0932C79.4824 29.6088 79.1548 29.2161 78.7507 29.2161C78.3466 29.2161 78.019 29.6088 78.019 30.0932C78.019 30.5777 78.3466 30.9704 78.7507 30.9704Z" fill="black"/>
<path d="M74.4167 30.9704C74.8208 30.9704 75.1484 30.5777 75.1484 30.0932C75.1484 29.6088 74.8208 29.2161 74.4167 29.2161C74.0126 29.2161 73.6851 29.6088 73.6851 30.0932C73.6851 30.5777 74.0126 30.9704 74.4167 30.9704Z" fill="black"/>
<path d="M82.8932 25.8873C81.4524 26.3259 81.1822 26.6745 80.8558 28.5975C80.5294 26.6745 80.2592 26.3259 78.8184 25.8873C80.2592 25.4487 80.5294 25.1001 80.8558 23.1771C81.1822 25.1001 81.4524 25.4487 82.8932 25.8873Z" fill="black"/>
</g>
<defs>
<clipPath id="clip0_852_26540">
<rect width="166" height="53.5964" fill="white"/>
</clipPath>
</defs>
</svg>
