<svg width="48" height="48" viewBox="0 0 48 48" fill="none" xmlns="http://www.w3.org/2000/svg">
<path d="M24 48C37.2548 48 48 37.2548 48 24C48 10.7452 37.2548 0 24 0C10.7452 0 0 10.7452 0 24C0 37.2548 10.7452 48 24 48Z" fill="#FFC431"/>
<mask id="mask0_868_32760" style="mask-type:luminance" maskUnits="userSpaceOnUse" x="0" y="0" width="48" height="48">
<path d="M24 48C37.2548 48 48 37.2548 48 24C48 10.7452 37.2548 0 24 0C10.7452 0 0 10.7452 0 24C0 37.2548 10.7452 48 24 48Z" fill="white"/>
</mask>
<g mask="url(#mask0_868_32760)">
<path d="M22.4553 22.5743L16.3662 19.0396C16.3662 19.0396 17.2424 10.2327 27.4602 12.9357C36.2226 15.2525 33.6979 25.8267 33.6979 25.8267C33.6979 25.8267 33.282 28.7079 36.9949 30.1485C40.7078 31.5891 37.4701 38.5842 32.6731 36.5198C32.6731 36.5198 27.4602 33.0297 25.4701 33.9802C23.48 34.9307 16.2771 40.5594 13.6781 34.2475C11.079 27.9356 18.5493 27.5347 18.5493 27.5347L30.8167 26.0198L22.4404 22.5743H22.4553Z" fill="#632A0D"/>
<path d="M7.75244 48.3712C7.75244 48.3712 9.05938 38.7772 16.5297 38.3613H33.8019C33.8019 38.3613 42.4455 39.3267 42.1039 48.3712H7.75244Z" fill="#EF9D4B"/>
<path d="M16.3662 19.0247V28.203C16.3662 29.8515 17.0642 31.4406 18.3266 32.4653C18.8464 32.8812 19.485 33.2525 20.2721 33.4901V38.5693C20.2721 38.5693 21.787 41.7921 25.3514 41.6584C25.3514 41.6584 28.9157 41.5247 29.1979 38.302V27.8168C29.1979 27.8168 32.3761 27.6534 31.0989 24.8317C30.7127 23.9851 29.8514 23.4208 28.9157 23.495C28.4702 23.5396 27.9949 23.7178 27.5494 24.1782L27.4157 20.8218C27.4157 20.8218 23.3761 21.2376 21.5197 16.8416C21.5197 16.8416 18.2969 16.1584 16.3811 19.0396L16.3662 19.0247Z" fill="#FFEDE3"/>
<path d="M20.1389 27.1634C20.1389 27.1634 20.1092 27.1634 20.0944 27.1634C19.4409 27.0149 19.0251 26.6882 18.8469 26.1981C18.4013 24.9208 19.931 22.9753 19.9904 22.8862C20.0498 22.8119 20.1686 22.7971 20.2429 22.8565C20.3172 22.9159 20.332 23.0347 20.2726 23.109C20.2726 23.1238 18.8023 24.9802 19.1884 26.0644C19.3221 26.4357 19.634 26.6733 20.1686 26.7921C20.2726 26.8218 20.332 26.9109 20.3023 27.0149C20.2875 27.104 20.2132 27.1486 20.1241 27.1486L20.1389 27.1634Z" fill="#666666"/>
<path d="M21.372 29.5249C21.0304 29.5249 20.7631 29.3764 20.7334 29.3615C20.6443 29.317 20.6146 29.1982 20.6591 29.1091C20.7037 29.0199 20.8225 28.9902 20.9116 29.0348C20.9116 29.0348 21.3423 29.2724 21.6542 29.0793C21.9364 28.916 22.0849 28.4556 22.0849 27.7576C22.0849 27.6536 22.1591 27.5793 22.2631 27.5793C22.3671 27.5793 22.4413 27.6536 22.4413 27.7576C22.4413 28.6041 22.2334 29.1536 21.8324 29.3912C21.6839 29.4803 21.5205 29.51 21.372 29.51V29.5249Z" fill="#666666"/>
<path d="M22.7674 23.495C23.0544 23.495 23.2872 23.2623 23.2872 22.9752C23.2872 22.6882 23.0544 22.4554 22.7674 22.4554C22.4803 22.4554 22.2476 22.6882 22.2476 22.9752C22.2476 23.2623 22.4803 23.495 22.7674 23.495Z" fill="#666666"/>
<path d="M18.3567 23.495C18.6438 23.495 18.8765 23.2623 18.8765 22.9752C18.8765 22.6882 18.6438 22.4554 18.3567 22.4554C18.0696 22.4554 17.8369 22.6882 17.8369 22.9752C17.8369 23.2623 18.0696 23.495 18.3567 23.495Z" fill="#666666"/>
<path d="M23.8818 21.6683C23.8076 21.6683 23.7333 21.6237 23.7036 21.5346C23.4511 20.6584 22.3521 20.9257 22.3076 20.9405C22.2036 20.9702 22.1145 20.9108 22.0848 20.8069C22.0551 20.7029 22.1145 20.6138 22.2185 20.5841C22.7383 20.4504 23.7779 20.4504 24.06 21.4306C24.0897 21.5197 24.0303 21.6237 23.9412 21.6534C23.9264 21.6534 23.9115 21.6534 23.8967 21.6534L23.8818 21.6683Z" fill="#666666"/>
<path d="M17.2429 21.6683C17.2429 21.6683 17.2132 21.6683 17.1983 21.6683C17.1092 21.6386 17.0498 21.5346 17.0795 21.4455C17.3617 20.4653 18.4013 20.4653 18.9211 20.599C19.0102 20.6287 19.0696 20.7178 19.0548 20.8218C19.0251 20.9109 18.9359 20.9703 18.832 20.9554C18.7874 20.9554 17.6884 20.6733 17.4359 21.5495C17.4062 21.6237 17.3468 21.6832 17.2577 21.6832L17.2429 21.6683Z" fill="#666666"/>
<path d="M28.2922 25.9901C28.2922 25.9901 28.2476 25.9901 28.2179 25.9753C28.1288 25.9307 28.0843 25.8267 28.1288 25.7376C28.1288 25.7079 28.4852 24.9802 29.1536 24.8465C29.5991 24.7574 30.0744 24.9505 30.5644 25.396C30.6387 25.4703 30.6387 25.5743 30.5644 25.6485C30.4902 25.7228 30.3862 25.7228 30.312 25.6485C29.911 25.2772 29.5545 25.1139 29.2278 25.1881C28.7377 25.2772 28.4555 25.8564 28.4555 25.8713C28.4258 25.9307 28.3664 25.9753 28.2922 25.9753V25.9901Z" fill="#666666"/>
<path d="M20.2729 33.4902C20.2729 33.4902 21.9363 33.6239 23.2581 33.5496C23.4512 33.5496 23.5403 33.7724 23.3918 33.8912C22.6937 34.4407 21.3423 35.3318 20.2729 35.2724V33.4902Z" fill="#FFCCB0"/>
</g>
</svg>
