<svg width="48" height="48" viewBox="0 0 48 48" fill="none" xmlns="http://www.w3.org/2000/svg">
<path d="M24 48C37.2548 48 48 37.2548 48 24C48 10.7452 37.2548 0 24 0C10.7452 0 0 10.7452 0 24C0 37.2548 10.7452 48 24 48Z" fill="#FF9239"/>
<mask id="mask0_868_34132" style="mask-type:luminance" maskUnits="userSpaceOnUse" x="0" y="0" width="48" height="48">
<path d="M24 48C37.2548 48 48 37.2548 48 24C48 10.7452 37.2548 0 24 0C10.7452 0 0 10.7452 0 24C0 37.2548 10.7452 48 24 48Z" fill="white"/>
</mask>
<g mask="url(#mask0_868_34132)">
<path d="M8.85177 50.0051C8.85177 50.0051 10.0547 39.8021 17.9706 39.2377L36.2825 38.9258C36.2825 38.9258 45.4607 39.7872 45.2528 49.3813L8.83691 50.0051H8.85177Z" fill="#494949"/>
<path d="M17.4511 18.8466C17.4511 18.8466 12.7135 18.0594 16.1294 13.7822C16.1294 13.7822 13.5601 7.87134 20.9115 8.31689C20.9115 8.31689 25.0551 8.61391 25.6343 12.7426C25.6343 12.7426 30.6096 10.6189 32.9412 15.2377C32.9412 15.2377 34.07 17.406 32.57 19.0248L32.8224 25.3515L24.8026 28.0991L17.4511 18.8466Z" fill="#D34600"/>
<path d="M17.4502 18.7427L17.6136 28.4705C17.6433 30.2081 18.4007 31.8863 19.7819 32.9556C20.3314 33.3863 21.0146 33.7724 21.8611 34.0101L21.9502 39.3863C21.9502 39.3863 23.6136 42.7724 27.3858 42.5645C27.3858 42.5645 31.1581 42.3566 31.3957 38.9408L31.2027 27.817C31.2027 27.817 34.5591 27.5794 33.1631 24.6239C32.7324 23.7328 31.8116 23.1388 30.8314 23.2576C30.3561 23.3021 29.8512 23.5101 29.4056 24.0002L29.1977 20.4358C29.1977 20.4358 24.9205 20.9408 22.871 16.3219C22.871 16.3219 19.4403 15.6536 17.465 18.7427H17.4502Z" fill="#FFE5D4"/>
<path d="M21.6688 27.3119C21.6688 27.3119 21.5946 27.3268 21.55 27.3119C20.8371 27.1634 20.3916 26.8218 20.1985 26.302C19.6936 24.9357 21.2827 22.8416 21.3569 22.7525C21.4312 22.6634 21.5648 22.6485 21.654 22.7079C21.7431 22.7822 21.7579 22.9159 21.6985 23.005C21.6837 23.0198 20.1837 24.9951 20.5995 26.1386C20.7332 26.5099 21.0748 26.7624 21.6391 26.8812C21.7579 26.9109 21.8322 27.0149 21.8025 27.1337C21.7876 27.208 21.7431 27.2674 21.6688 27.2822V27.3119Z" fill="#666666"/>
<path d="M23.3021 29.7476C22.812 29.9407 22.2922 29.6585 22.2625 29.6585C22.1585 29.5991 22.1288 29.4803 22.1734 29.3763C22.2328 29.2723 22.3516 29.2278 22.4555 29.2872C22.4555 29.2872 22.9011 29.5248 23.2278 29.3169C23.51 29.1387 23.6585 28.6634 23.6437 27.9209C23.6437 27.8021 23.7328 27.713 23.8516 27.713C23.9704 27.713 24.0595 27.8021 24.0595 27.9209C24.0744 28.8268 23.8664 29.4209 23.4357 29.6733C23.3912 29.703 23.3466 29.7179 23.2872 29.7476H23.3021Z" fill="#666666"/>
<path d="M24.3122 23.3614C24.6157 23.3614 24.8617 23.1154 24.8617 22.8119C24.8617 22.5084 24.6157 22.2624 24.3122 22.2624C24.0087 22.2624 23.7627 22.5084 23.7627 22.8119C23.7627 23.1154 24.0087 23.3614 24.3122 23.3614Z" fill="#666666"/>
<path d="M19.6193 23.4506C19.9228 23.4506 20.1688 23.2046 20.1688 22.9011C20.1688 22.5976 19.9228 22.3516 19.6193 22.3516C19.3158 22.3516 19.0698 22.5976 19.0698 22.9011C19.0698 23.2046 19.3158 23.4506 19.6193 23.4506Z" fill="#666666"/>
<path d="M25.5296 21.4306C25.5296 21.4306 25.5296 21.4306 25.5148 21.4306C25.3959 21.4603 25.292 21.4009 25.2474 21.297C24.9653 20.391 23.8217 20.6881 23.7771 20.7029C23.6583 20.7326 23.5544 20.6732 23.5247 20.5544C23.495 20.4356 23.5544 20.3168 23.6732 20.3019C24.2227 20.1534 25.3365 20.1386 25.6633 21.1782C25.693 21.2821 25.6336 21.4009 25.5445 21.4306H25.5296Z" fill="#666666"/>
<path d="M18.5051 21.5496C18.5051 21.5496 18.416 21.5644 18.3714 21.5496C18.2526 21.5199 18.1932 21.4011 18.2229 21.2971C18.5051 20.2426 19.6338 20.2129 20.1833 20.3615C20.3021 20.3912 20.3615 20.51 20.3318 20.6139C20.3021 20.7327 20.1981 20.7922 20.0793 20.7773C20.0348 20.7773 18.8764 20.4951 18.6239 21.4159C18.609 21.4902 18.5645 21.5347 18.4902 21.5644L18.5051 21.5496Z" fill="#666666"/>
<path d="M32.5695 25.5891C32.5695 25.5891 32.4061 25.6039 32.3467 25.5445C31.9309 25.1584 31.5448 25.0099 31.2032 25.0841C30.6982 25.1881 30.416 25.797 30.416 25.8119C30.3715 25.9158 30.2378 25.9604 30.1339 25.9158C30.0299 25.8713 29.9853 25.7525 30.0299 25.6336C30.0299 25.6039 30.3863 24.8168 31.1141 24.6683C31.5893 24.5643 32.1091 24.7574 32.6289 25.2327C32.718 25.3069 32.718 25.4406 32.6438 25.5297C32.6141 25.5594 32.5992 25.5742 32.5695 25.5891Z" fill="#666666"/>
<path d="M21.8467 34.0098C21.8467 34.0098 23.614 34.1287 25.01 34.0098C25.2031 33.995 25.3071 34.2475 25.1586 34.3663C24.416 34.9603 23.0199 35.9405 21.8764 35.896L21.8467 34.0098Z" fill="#FFCCB0"/>
</g>
</svg>
